<?xml version="1.0" encoding="utf-8"?>
<svg xmlns="http://www.w3.org/2000/svg" xmlns:xlink="http://www.w3.org/1999/xlink" style="margin: auto; background: rgb(241, 242, 243); display: block; shape-rendering: auto;" width="197px" height="197px" viewBox="0 0 100 100" preserveAspectRatio="xMidYMid">
<g transform="translate(50 50)">
<g>
<animateTransform attributeName="transform" type="rotate" values="0;45" keyTimes="0;1" dur="0.4081632653061225s" repeatCount="indefinite"></animateTransform><path d="M27.780388766178202 -3.5 L49.780388766178206 -3.5 L49.780388766178206 3.5 L27.780388766178202 3.5 A28 28 0 0 1 22.11857501471611 17.168827546410274 L22.11857501471611 17.168827546410274 L37.67492420082016 32.72517673251431 L32.72517673251431 37.67492420082016 L17.168827546410274 22.11857501471611 A28 28 0 0 1 3.500000000000003 27.7803887661782 L3.500000000000003 27.7803887661782 L3.5000000000000044 49.7803887661782 L-3.4999999999999987 49.780388766178206 L-3.5 27.780388766178202 A28 28 0 0 1 -17.16882754641027 22.11857501471611 L-17.16882754641027 22.11857501471611 L-32.72517673251431 37.67492420082016 L-37.67492420082015 32.72517673251433 L-22.118575014716107 17.168827546410277 A28 28 0 0 1 -27.7803887661782 3.5000000000000044 L-27.7803887661782 3.5000000000000044 L-49.7803887661782 3.500000000000007 L-49.780388766178206 -3.4999999999999956 L-27.780388766178202 -3.4999999999999982 A28 28 0 0 1 -22.118575014716114 -17.16882754641027 L-22.118575014716114 -17.16882754641027 L-37.674924200820165 -32.72517673251431 L-32.72517673251433 -37.67492420082015 L-17.168827546410277 -22.118575014716107 A28 28 0 0 1 -3.500000000000007 -27.7803887661782 L-3.500000000000007 -27.7803887661782 L-3.5000000000000115 -49.7803887661782 L3.499999999999992 -49.780388766178206 L3.4999999999999964 -27.780388766178202 A28 28 0 0 1 17.16882754641027 -22.118575014716114 L17.16882754641027 -22.118575014716114 L32.72517673251431 -37.674924200820165 L37.67492420082015 -32.72517673251433 L22.118575014716107 -17.168827546410277 A28 28 0 0 1 27.7803887661782 -3.5000000000000084 M0 -21A21 21 0 1 0 0 21 A21 21 0 1 0 0 -21" fill="#fdc823"></path></g></g>
<!-- [ldio] generated by https://loading.io/ --></svg>